<?xml version="1.0" standalone="no"?>
<!DOCTYPE svg PUBLIC "-//W3C//DTD SVG 20010904//EN"
 "http://www.w3.org/TR/2001/REC-SVG-20010904/DTD/svg10.dtd">
<svg version="1.0" xmlns="http://www.w3.org/2000/svg"
 width="766.000000pt" height="766.000000pt" viewBox="0 0 766.000000 766.000000"
 preserveAspectRatio="xMidYMid meet">
<metadata>
Created by potrace 1.14, written by Peter Selinger 2001-2017
</metadata>
<g transform="translate(0.000000,766.000000) scale(0.100000,-0.100000)"
fill="#000000" stroke="none">
<path d="M3565 7524 c-306 -41 -601 -129 -906 -269 -571 -263 -1199 -693
-1609 -1104 -284 -285 -454 -552 -616 -968 -262 -674 -316 -860 -371 -1263
-25 -191 -25 -685 0 -885 44 -336 123 -599 273 -900 63 -127 87 -159 365 -487
197 -232 244 -284 506 -565 201 -216 419 -380 653 -492 162 -77 832 -334 958
-367 357 -93 809 -125 1232 -89 666 58 918 97 1170 183 187 64 580 217 655
255 96 48 200 117 275 183 31 27 191 151 356 276 335 254 395 304 472 392 144
164 292 443 434 816 177 467 214 720 206 1422 -4 306 -6 330 -31 448 -64 296
-180 684 -258 864 -49 113 -146 286 -165 293 -8 3 -14 11 -14 18 0 32 -478
674 -688 925 -338 404 -572 603 -912 773 -361 181 -1043 452 -1275 507 -212
51 -491 64 -710 34z m580 -408 c186 -33 660 -162 837 -227 281 -103 578 -277
863 -505 292 -234 672 -647 941 -1025 83 -116 297 -466 353 -576 136 -270 243
-640 303 -1044 18 -127 22 -198 23 -404 0 -267 -9 -354 -61 -575 -14 -58 -34
-148 -45 -200 -29 -130 -51 -180 -180 -408 -192 -338 -267 -438 -491 -659
-392 -387 -744 -621 -1223 -813 -250 -100 -540 -177 -1110 -297 -180 -37 -180
-37 -420 -37 -205 0 -257 4 -355 22 -140 27 -561 100 -644 112 -140 19 -420
74 -545 106 -221 58 -414 143 -611 271 -216 141 -557 437 -690 598 -65 80
-355 496 -438 630 -132 214 -273 562 -306 760 -9 50 -21 157 -27 238 -10 147
-10 168 27 897 13 273 42 436 139 791 66 243 110 375 162 489 41 91 177 315
266 440 76 108 234 292 264 309 19 10 166 147 292 272 161 159 262 230 591
412 401 222 460 246 795 330 432 109 503 117 900 112 211 -3 336 -9 390 -19z"/>
<path d="M3471 6368 c-98 -28 -142 -121 -109 -230 37 -124 238 -146 322 -35
21 28 27 47 28 93 3 138 -102 212 -241 172z m109 -88 c45 -24 44 -126 0 -150
-30 -16 -76 -11 -104 11 -34 27 -37 94 -6 127 22 24 77 30 110 12z"/>
<path d="M3916 6328 c-17 -170 -23 -264 -18 -269 9 -9 232 -30 243 -23 5 3 9
23 9 45 l0 39 -76 0 -76 0 8 93 c4 50 8 108 9 127 0 35 0 35 -47 38 l-46 3 -6
-53z"/>
<path d="M4375 6283 c-4 -21 -16 -72 -26 -113 -10 -41 -23 -96 -28 -122 l-8
-48 36 -10 c55 -15 57 -14 69 43 7 28 23 99 36 157 13 58 21 108 18 111 -4 4
-26 10 -49 14 l-42 7 -6 -39z"/>
<path d="M2990 6271 c-14 -5 -51 -16 -83 -25 -54 -16 -57 -18 -51 -44 14 -64
77 -268 84 -276 5 -5 25 -4 47 1 39 9 41 13 32 72 -4 20 2 25 44 39 59 19 107
70 107 113 0 95 -83 150 -180 120z m78 -108 c2 -13 -5 -27 -20 -37 -27 -19
-68 -21 -68 -3 0 6 -3 22 -6 34 -7 24 11 32 61 30 22 -2 31 -7 33 -24z"/>
<path d="M4670 6214 c-15 -38 -13 -43 28 -61 20 -10 38 -18 40 -19 3 -1 -54
-158 -67 -182 -19 -35 -12 -51 25 -67 20 -8 39 -15 43 -15 3 0 23 47 44 103
51 137 48 132 85 113 17 -9 36 -16 41 -16 16 0 44 61 33 72 -9 9 -238 98 -253
98 -5 0 -14 -12 -19 -26z"/>
<path d="M2505 6088 c-142 -50 -179 -198 -77 -305 49 -50 140 -53 219 -8 72
43 104 122 78 195 -37 106 -123 152 -220 118z m79 -89 c72 -33 62 -147 -14
-164 -90 -20 -144 106 -68 159 27 19 48 20 82 5z"/>
<path d="M5054 5919 c-76 -54 -140 -103 -142 -109 -2 -5 15 -18 37 -30 38 -19
43 -19 66 -4 23 15 27 14 82 -20 50 -31 58 -41 58 -67 0 -24 7 -34 37 -51 21
-12 40 -19 43 -16 8 8 45 341 39 350 -3 5 -22 17 -43 28 l-38 19 -139 -100z
m128 -59 c-5 -38 -24 -47 -52 -27 -21 15 -21 15 11 40 39 31 47 28 41 -13z"/>
<path d="M2028 5787 c-53 -40 -97 -75 -97 -80 -1 -6 112 -162 129 -177 3 -3
18 -22 33 -42 15 -21 32 -38 36 -38 5 0 44 27 87 61 44 34 88 67 99 75 19 13
19 15 3 42 -9 15 -23 28 -31 30 -7 1 -40 -18 -72 -43 -52 -40 -61 -44 -74 -30
-13 13 -10 18 25 49 21 20 47 38 57 41 23 8 22 26 -3 58 l-21 26 -59 -45 c-56
-42 -81 -49 -80 -21 1 7 25 30 55 52 30 22 55 46 55 53 0 15 -29 62 -39 61 -3
0 -50 -33 -103 -72z"/>
<path d="M5504 5673 c-43 -49 -91 -103 -108 -120 l-30 -33 29 -30 c16 -16 36
-30 44 -29 9 0 36 26 61 57 52 66 56 61 42 -63 -10 -88 -6 -104 33 -125 26
-14 28 -13 68 31 93 101 167 188 167 196 0 5 -14 22 -31 39 l-31 29 -60 -65
c-33 -36 -58 -56 -54 -45 3 11 6 59 7 107 2 80 1 90 -21 113 -13 14 -27 25
-31 25 -3 0 -42 -39 -85 -87z"/>
<path d="M1717 5512 c-15 -15 -27 -32 -27 -37 0 -4 26 -32 58 -62 l57 -54 -50
6 c-27 3 -76 6 -107 7 -49 1 -60 -2 -77 -23 -11 -13 -20 -28 -21 -34 0 -12
217 -209 235 -213 6 -2 24 13 38 32 l27 34 -63 55 -62 56 65 -5 c36 -2 83 -6
104 -9 31 -5 44 -1 62 16 43 40 36 51 -133 197 -39 34 -73 62 -75 62 -2 0 -16
-13 -31 -28z"/>
<path d="M3024 5377 c-2 -7 -3 -71 -2 -143 l3 -129 31 -3 c45 -4 98 12 102 30
2 13 -6 17 -35 20 -31 2 -39 7 -41 27 -3 16 5 32 22 48 39 36 34 60 -12 54 -9
-2 -12 7 -10 26 2 23 9 29 33 31 42 5 55 20 31 38 -25 18 -115 19 -122 1z"/>
<path d="M3413 5383 c-22 -8 -15 -41 10 -45 21 -3 22 -8 27 -118 5 -115 5
-115 30 -115 l25 0 0 110 0 110 28 13 c32 15 34 27 8 42 -20 10 -106 13 -128
3z"/>
<path d="M3834 5365 c-9 -14 -14 -32 -10 -40 7 -19 42 -19 50 0 3 8 13 15 22
15 25 0 13 -43 -35 -125 -23 -38 -41 -75 -41 -83 0 -23 47 -36 98 -26 56 11
63 34 15 46 -18 5 -33 13 -33 19 0 6 15 31 32 57 58 84 37 162 -43 162 -30 0
-42 -6 -55 -25z"/>
<path d="M4059 5377 c-29 -22 -39 -55 -39 -126 0 -83 10 -114 44 -137 30 -19
67 -13 96 16 17 17 20 34 20 119 0 96 -1 100 -26 120 -30 23 -71 27 -95 8z
m60 -51 c7 -9 11 -42 9 -88 -3 -66 -5 -73 -24 -76 -19 -3 -22 3 -28 60 -10 90
12 142 43 104z"/>
<path d="M4257 5372 c-23 -26 -22 -62 2 -62 10 0 24 7 31 15 17 20 40 19 40
-2 0 -10 -20 -52 -45 -93 -51 -86 -55 -106 -21 -121 27 -13 116 -4 116 12 0 5
0 12 -1 17 0 4 -16 12 -34 17 l-34 10 34 55 c41 65 46 119 15 150 -26 26 -81
26 -103 2z"/>
<path d="M4454 5365 c-14 -21 -15 -31 -5 -51 6 -14 11 -65 11 -113 0 -72 3
-90 16 -95 9 -3 20 -4 25 0 5 3 9 68 9 145 0 132 -1 139 -20 139 -11 0 -27
-11 -36 -25z"/>
<path d="M3247 5362 c-28 -30 -20 -60 28 -111 47 -51 54 -71 31 -90 -25 -21
-56 4 -53 42 2 26 -2 32 -18 32 -29 0 -44 -49 -24 -83 45 -80 159 -57 159 33
0 27 -10 46 -45 85 -25 28 -45 53 -45 56 0 4 11 3 25 0 18 -5 27 -2 31 9 16
40 -58 62 -89 27z"/>
<path d="M3626 5133 c-11 -11 -6 -23 9 -23 8 0 15 4 15 9 0 13 -16 22 -24 14z"/>
<path d="M5943 4631 c-23 -4 -49 -14 -59 -22 -22 -18 -44 -71 -44 -107 0 -16
-7 -50 -16 -76 -26 -75 -21 -77 192 -81 346 -5 389 -24 331 -139 -14 -28 -37
-80 -51 -116 -13 -36 -43 -102 -65 -147 -23 -46 -41 -89 -41 -96 0 -8 -16 -44
-35 -80 -19 -36 -35 -74 -35 -84 0 -10 -7 -31 -16 -48 -9 -16 -25 -52 -35 -80
-11 -27 -35 -81 -53 -120 -19 -38 -46 -104 -62 -145 -15 -41 -34 -82 -41 -91
-7 -8 -19 -35 -27 -60 -8 -24 -35 -90 -61 -147 -51 -111 -50 -125 4 -137 15
-3 126 -8 246 -11 335 -9 367 -10 548 -23 115 -8 174 -8 187 -1 17 9 40 65 40
97 0 7 9 40 21 73 19 56 20 63 5 85 -15 22 -51 33 -121 34 -11 0 -101 6 -200
13 -189 14 -235 26 -235 66 0 25 27 99 61 166 16 33 29 65 29 71 0 17 39 103
49 109 5 3 12 18 16 33 3 16 31 78 60 138 85 172 196 416 211 463 7 24 24 64
38 90 61 117 128 286 119 301 -10 16 -117 41 -172 39 -51 -1 -177 11 -236 23
-27 5 -90 10 -140 9 -49 0 -153 1 -230 4 -77 3 -159 2 -182 -3z"/>
<path d="M5285 4621 c-2 -2 -60 -6 -127 -8 -68 -3 -150 -6 -183 -9 -33 -2
-100 -6 -150 -8 -112 -5 -222 -21 -239 -35 -13 -11 -34 -82 -57 -194 -9 -40
-9 -61 -2 -68 13 -13 119 -15 228 -5 44 4 128 10 186 13 103 5 107 5 122 -18
19 -26 14 -57 -15 -104 -10 -16 -18 -36 -18 -43 0 -7 -18 -51 -40 -97 -22 -47
-43 -99 -46 -117 -4 -18 -12 -42 -19 -53 -13 -21 -34 -73 -98 -240 -50 -128
-83 -210 -117 -285 -16 -36 -43 -99 -60 -140 -17 -41 -40 -91 -51 -111 -10
-20 -19 -46 -19 -57 0 -10 -8 -30 -19 -43 -21 -27 -61 -148 -61 -185 0 -34 30
-38 152 -23 93 12 238 19 373 18 28 0 84 5 125 11 41 6 121 11 177 11 61 0
122 6 152 15 50 14 51 15 70 77 10 34 24 88 31 119 21 93 30 90 -261 83 -168
-5 -253 -3 -267 4 -27 14 -36 57 -19 85 7 11 21 46 31 77 9 31 24 65 31 75 8
11 15 26 15 35 0 9 12 38 26 65 15 27 37 76 49 109 45 118 67 170 75 180 4 6
24 48 43 95 19 47 45 110 57 140 29 70 84 197 121 277 16 34 29 65 29 69 0 5
25 59 56 121 55 109 56 113 40 138 -15 23 -23 25 -94 27 -144 3 -223 3 -227
-1z"/>
<path d="M3495 4538 c-49 -5 -119 -18 -155 -28 -36 -11 -83 -24 -105 -30 -49
-12 -179 -78 -232 -116 -119 -87 -148 -113 -193 -169 -89 -112 -184 -288 -207
-385 -33 -137 -38 -253 -19 -388 18 -126 39 -205 61 -232 7 -8 30 -49 50 -90
47 -93 162 -216 255 -270 145 -85 225 -121 290 -131 107 -17 283 -27 308 -18
13 5 35 9 49 9 13 0 57 11 96 24 40 14 83 27 97 30 35 7 182 98 243 149 225
191 275 269 371 577 28 87 27 323 -1 415 -12 39 -26 88 -32 110 -22 84 -191
320 -254 354 -16 9 -51 32 -76 52 -52 40 -110 68 -216 104 -65 22 -197 47
-227 43 -7 0 -53 -5 -103 -10z m23 -299 c70 -12 72 -14 72 -41 0 -16 -9 -54
-20 -85 -16 -47 -37 -75 -120 -158 -124 -127 -144 -166 -146 -286 -1 -77 -4
-90 -27 -120 l-26 -33 -44 21 c-39 19 -45 26 -52 65 -5 27 -9 35 -12 23 -2
-11 -15 -67 -30 -124 -24 -100 -25 -126 -8 -208 6 -25 3 -33 -14 -42 -18 -10
-23 -7 -43 33 -13 24 -38 72 -56 106 -18 34 -42 100 -52 147 -16 75 -17 101
-9 211 12 141 16 156 84 262 62 98 86 124 167 176 110 71 176 82 336 53z m162
-55 c123 -58 223 -163 290 -302 88 -184 108 -312 74 -462 -14 -64 -17 -68 -37
-61 -23 9 -44 72 -46 137 -1 20 -15 49 -40 80 -21 27 -42 60 -46 74 -4 14 -24
55 -46 91 -27 47 -42 88 -50 139 l-13 73 -14 -39 c-7 -21 -16 -79 -19 -129
l-6 -89 -31 36 c-51 58 -64 116 -53 229 9 98 5 122 -41 248 -3 7 -1 12 4 10 5
-3 38 -18 74 -35z m-132 -511 c30 -51 59 -93 65 -93 7 0 20 12 29 28 17 27 17
26 18 -53 0 -84 29 -265 42 -265 10 0 90 80 104 105 11 18 12 17 19 -18 19
-96 -46 -232 -133 -276 -113 -57 -211 -61 -300 -11 -44 26 -54 39 -92 115 -23
47 -40 88 -38 91 3 2 34 -2 68 -10 l63 -15 38 30 38 30 -35 54 c-35 55 -34 68
2 40 24 -18 54 -19 54 -2 0 6 -11 49 -24 95 -18 64 -22 91 -15 120 5 20 6 62
3 93 -5 44 -2 63 12 90 l19 34 5 -45 c3 -30 23 -77 58 -137z"/>
<path d="M845 4461 c-57 -6 -60 -7 -63 -34 -2 -16 3 -36 11 -45 9 -10 23 -46
32 -80 19 -74 24 -279 37 -1355 1 -34 -17 -96 -43 -155 -33 -74 -29 -81 71
-111 19 -6 107 -13 194 -15 203 -7 209 -3 161 98 -32 67 -54 211 -45 291 4 33
4 89 0 125 -8 84 -5 389 5 398 4 4 11 0 16 -8 58 -96 89 -153 104 -194 10 -26
43 -94 73 -150 30 -55 72 -137 93 -181 53 -107 65 -128 82 -139 25 -16 47 2
73 56 14 29 31 64 38 78 8 14 25 50 39 80 14 30 44 95 67 144 23 50 50 113 61
140 29 78 83 181 94 181 15 0 20 -112 19 -435 -1 -313 -1 -314 -56 -448 -20
-52 -3 -58 180 -67 165 -7 229 1 265 32 24 22 21 66 -6 100 -29 34 -41 112
-42 268 0 61 -2 175 -3 255 -10 587 -7 973 7 1000 7 14 21 40 31 59 10 18 16
39 13 46 -8 21 -55 33 -111 27 -29 -2 -79 1 -113 7 -45 9 -69 9 -94 1 -49 -16
-98 -79 -120 -151 -10 -34 -26 -71 -35 -83 -9 -11 -29 -55 -44 -96 -37 -98
-112 -264 -140 -309 -12 -20 -35 -70 -50 -113 -43 -119 -82 -138 -114 -56 -9
24 -36 80 -59 126 -24 46 -43 89 -43 95 0 7 -11 29 -25 49 -14 20 -25 43 -25
50 0 7 -10 31 -21 53 -12 22 -32 67 -45 100 -13 33 -46 106 -73 163 -28 57
-51 107 -51 111 0 19 -70 69 -110 79 -60 14 -161 20 -235 13z"/>
<path d="M4731 1969 c-75 -16 -123 -75 -129 -158 -6 -77 23 -132 83 -161 67
-33 176 -22 212 21 9 11 6 20 -12 44 l-24 29 -36 -17 c-47 -22 -67 -21 -99 4
-22 17 -26 29 -26 68 0 55 18 77 68 87 21 4 40 1 55 -9 22 -14 26 -14 50 9 35
32 34 38 -5 62 -40 23 -91 32 -137 21z"/>
<path d="M1529 1938 c-1 -40 -1 -256 0 -280 1 -14 10 -18 46 -18 l45 0 0 39
c0 44 10 51 71 51 105 0 161 92 109 178 -27 44 -67 58 -177 61 l-93 2 -1 -33z
m189 -90 c3 -22 -2 -29 -21 -33 -49 -13 -72 -3 -75 33 l-3 33 48 -3 c44 -3 48
-5 51 -30z"/>
<path d="M1930 1805 l0 -165 44 0 43 0 5 43 c3 35 3 204 -1 270 -1 13 -10 17
-46 17 l-45 0 0 -165z"/>
<path d="M2147 1963 c-4 -3 -7 -21 -7 -40 l0 -33 65 0 c36 0 65 -3 65 -6 0 -4
-29 -53 -65 -109 -36 -56 -65 -109 -65 -118 0 -15 16 -17 135 -17 l135 0 0 40
0 39 -70 3 -70 3 70 105 c38 58 70 113 70 123 0 15 -13 17 -128 17 -71 0 -132
-3 -135 -7z"/>
<path d="M2520 1930 l0 -40 66 0 c36 0 64 -3 62 -7 -1 -5 -33 -54 -70 -111
-38 -56 -68 -109 -68 -118 0 -12 21 -14 138 -12 l137 3 3 38 3 37 -71 0 c-59
0 -71 3 -67 15 4 8 36 59 72 114 37 55 64 105 60 111 -4 6 -56 10 -136 10
l-129 0 0 -40z"/>
<path d="M3001 1928 c-11 -24 -40 -90 -66 -148 -67 -150 -66 -140 -6 -140 46
0 51 2 57 25 6 24 10 25 80 25 70 0 75 -1 84 -25 8 -22 15 -25 60 -25 27 0 50
2 50 4 0 3 -18 44 -40 91 -22 47 -40 88 -40 91 0 2 -14 35 -31 74 l-32 70 -49
0 c-48 0 -49 -1 -67 -42z m87 -111 c16 -46 16 -47 -18 -47 -33 0 -37 11 -20
54 13 35 24 33 38 -7z"/>
<path d="M3618 1810 c-2 -89 -1 -165 2 -169 3 -4 24 -6 48 -3 l42 4 0 44 c0
24 3 44 8 43 4 0 23 -20 42 -44 34 -43 36 -44 98 -44 34 -1 62 1 62 4 0 3 -18
25 -41 48 -22 23 -54 58 -70 78 l-28 36 64 74 c35 41 62 76 59 78 -2 3 -27 6
-54 8 -47 3 -50 1 -86 -42 -20 -25 -41 -45 -46 -45 -5 0 -8 19 -6 43 l3 42
-47 3 -47 3 -3 -161z"/>
<path d="M4020 1805 l0 -165 45 0 c44 0 45 1 46 33 1 30 1 257 0 285 -1 8 -17
12 -46 12 l-45 0 0 -165z"/>
<path d="M4224 1956 c-3 -8 -4 -27 -2 -43 3 -26 6 -28 48 -28 l45 0 2 -120 1
-120 46 -5 45 -6 3 126 3 125 45 0 45 0 0 40 0 40 -138 2 c-110 2 -139 0 -143
-11z"/>
<path d="M5017 1964 c-4 -4 -7 -78 -7 -165 l0 -157 39 -4 c22 -2 45 -2 50 0 6
2 11 30 11 63 l0 59 55 0 55 0 0 -60 0 -60 49 0 49 0 -2 163 -1 162 -47 3 -48
3 0 -65 0 -64 -55 0 -54 1 -3 61 -3 61 -40 3 c-23 2 -44 0 -48 -4z"/>
<path d="M5447 1963 c-4 -3 -7 -78 -7 -165 l0 -158 135 0 135 0 0 40 0 40 -85
0 c-78 0 -85 2 -85 20 0 18 7 20 75 20 l75 0 0 40 0 40 -76 0 c-72 0 -75 1
-72 23 3 21 7 22 81 18 l77 -3 0 46 0 46 -123 0 c-68 0 -127 -3 -130 -7z"/>
<path d="M5829 1963 c0 -5 -2 -79 -4 -166 l-3 -158 51 3 50 3 -2 78 c-1 42 0
77 2 77 2 0 31 -35 63 -77 32 -43 63 -81 68 -85 13 -9 69 2 78 16 4 5 6 78 5
161 l-2 150 -47 3 -48 3 0 -87 0 -87 -65 86 c-63 84 -67 87 -105 87 -22 0 -40
-3 -41 -7z"/>
</g>
</svg>
